<svg xmlns="http://www.w3.org/2000/svg" width="26" height="26" viewBox="0 0 26 26"><defs><style>.a{opacity:0.14;}.b{fill:#a065a0;}</style></defs><g transform="translate(-422 -5)"><rect class="a" width="26" height="26" rx="3" transform="translate(422 5)"/><path class="b" d="M418.449,83.725a2.074,2.074,0,1,0,2.073,2.074A2.079,2.079,0,0,0,418.449,83.725Zm6.217,2.074c0-.859.007-1.709-.041-2.566a3.438,3.438,0,0,0-3.607-3.608c-.859-.048-1.709-.041-2.566-.041s-1.709-.007-2.566.041a3.438,3.438,0,0,0-3.607,3.608c-.048.859-.041,1.709-.041,2.566s-.007,1.709.041,2.566a3.438,3.438,0,0,0,3.607,3.608c.859.048,1.709.041,2.566.041s1.709.008,2.566-.041a3.439,3.439,0,0,0,3.607-3.608C424.676,87.508,424.666,86.658,424.666,85.8Zm-6.217,3.19a3.19,3.19,0,1,1,3.19-3.19A3.186,3.186,0,0,1,418.449,88.988Zm3.321-5.766a.745.745,0,1,1,.745-.745.744.744,0,0,1-.745.745Z" transform="translate(17.502 -67.582)"/></g></svg>