<svg xmlns="http://www.w3.org/2000/svg" width="27" height="26" viewBox="0 0 27 26"><defs><style>.a{opacity:0.14;}.b{fill:#1da1f2;}</style></defs><g transform="translate(-362 -5)"><rect class="a" width="27" height="26" rx="3" transform="translate(362 5)"/><path class="b" d="M225.023,81.934a5.906,5.906,0,0,1-1.694.449,2.954,2.954,0,0,0,1.3-1.631,5.881,5.881,0,0,1-1.874.714,2.952,2.952,0,0,0-5.1,2.017,2.991,2.991,0,0,0,.077.674,8.373,8.373,0,0,1-6.079-3.082,2.956,2.956,0,0,0,.9,3.94,2.94,2.94,0,0,1-1.348-.373v.041a2.947,2.947,0,0,0,2.368,2.889,3.013,3.013,0,0,1-.777.108,3.2,3.2,0,0,1-.557-.054,2.956,2.956,0,0,0,2.754,2.049,5.906,5.906,0,0,1-3.661,1.263,6.179,6.179,0,0,1-.705-.041,8.364,8.364,0,0,0,12.916-7.045v-.382A6.1,6.1,0,0,0,225.023,81.934Z" transform="translate(157.381 -68.535)"/></g></svg>