<svg xmlns="http://www.w3.org/2000/svg" width="27" height="26" viewBox="0 0 27 26"><defs><style>.a{opacity:0.14;}.b{fill:red;}</style></defs><g transform="translate(-392 -5)"><rect class="a" width="27" height="26" rx="3" transform="translate(392 5)"/><path class="b" d="M322.377,85.971a2.819,2.819,0,0,0-.512-1.283,1.843,1.843,0,0,0-1.295-.544c-1.807-.129-4.513-.129-4.513-.129h0s-2.707,0-4.513.129a1.842,1.842,0,0,0-1.295.544,2.818,2.818,0,0,0-.512,1.283,19.564,19.564,0,0,0-.129,2.089v.98a19.578,19.578,0,0,0,.129,2.09,2.781,2.781,0,0,0,.512,1.278,2.175,2.175,0,0,0,1.423.553c1.033.1,4.389.129,4.389.129s2.71,0,4.517-.133a1.851,1.851,0,0,0,1.295-.549,2.782,2.782,0,0,0,.513-1.278,19.562,19.562,0,0,0,.129-2.09v-.98A19.465,19.465,0,0,0,322.377,85.971Zm-7.664,4.255V86.6l3.493,1.835Z" transform="translate(89.393 -71.014)"/></g></svg>